<?xml version="1.0" standalone="no"?>
<!DOCTYPE svg PUBLIC "-//W3C//DTD SVG 20010904//EN"
 "http://www.w3.org/TR/2001/REC-SVG-20010904/DTD/svg10.dtd">
<svg version="1.0" xmlns="http://www.w3.org/2000/svg"
 width="500.000000pt" height="500.000000pt" viewBox="0 0 500.000000 500.000000"
 preserveAspectRatio="xMidYMid meet">

<g transform="translate(0.000000,500.000000) scale(0.100000,-0.100000)"
fill="#000000" stroke="none">
<path d="M1745 3799 c-245 -33 -408 -155 -483 -360 l-27 -74 -3 -691 -3 -692
278 -7 c419 -11 460 -10 547 9 80 18 187 59 250 97 l36 21 0 -189 0 -190 422
-6 c455 -8 541 -3 688 39 198 57 342 159 406 289 26 54 29 70 29 155 -1 116
-20 164 -95 245 -38 40 -77 66 -144 99 -50 24 -106 47 -123 51 -18 4 -33 10
-33 13 0 4 23 18 51 32 169 83 258 261 215 431 -57 219 -295 351 -684 379
-152 11 -272 -1 -376 -36 -43 -14 -79 -24 -80 -22 -83 115 -164 199 -247 256
-177 121 -418 179 -624 151z m-148 -199 c248 -112 564 -505 709 -882 l34 -87
0 -225 0 -226 -25 -16 c-90 -59 -253 4 -427 165 l-68 63 0 286 c0 158 -5 320
-10 361 -18 140 -70 207 -232 304 -113 67 -149 107 -155 175 -4 38 -1 53 17
75 18 23 29 27 68 27 26 0 66 -9 89 -20z m1586 -201 c104 -13 232 -51 315 -93
95 -48 155 -105 193 -182 28 -56 33 -76 33 -142 0 -57 -5 -89 -21 -124 -45
-99 -153 -185 -290 -229 -73 -24 -92 -39 -50 -39 42 0 206 -49 268 -81 78 -39
154 -109 187 -174 22 -42 26 -63 26 -135 1 -73 -3 -93 -27 -142 -98 -199 -417
-322 -794 -304 -70 3 -244 9 -385 12 l-258 6 0 174 0 173 103 103 c181 182
264 366 274 611 3 64 9 117 13 117 16 0 93 -94 113 -138 21 -45 22 -62 25
-440 l3 -393 42 -41 c129 -125 253 -157 355 -91 65 41 82 194 37 330 -62 185
-222 347 -366 371 -38 6 -44 11 -47 33 -3 25 0 26 50 32 163 20 252 108 233
234 -16 105 -135 272 -245 343 -68 44 -174 80 -237 80 -51 0 -53 1 -73 40 -24
46 -23 47 75 76 116 34 253 38 448 13z m-351 -190 c114 -38 208 -113 280 -224
88 -135 84 -246 -11 -294 -33 -17 -141 -45 -146 -39 -1 2 -7 38 -14 81 -6 43
-20 96 -31 118 -26 50 -82 112 -126 140 -19 11 -34 29 -34 38 0 19 -33 153
-45 184 -6 14 -1 17 29 17 20 0 64 -9 98 -21z m214 -728 c152 -72 283 -282
284 -454 0 -119 -42 -169 -141 -169 -56 0 -125 34 -193 96 l-46 43 0 256 c0
295 -7 277 96 228z m-659 -148 c-2 -16 -4 -3 -4 27 0 30 2 43 4 28 2 -16 2
-40 0 -55z"/>
<path d="M1769 1926 c-2 -2 -3 -43 -1 -90 3 -83 4 -86 28 -86 29 0 64 32 64
59 0 29 -28 52 -55 45 -22 -5 -23 -4 -18 35 5 36 -3 52 -18 37z m69 -117 c3
-29 -20 -54 -43 -45 -15 5 -21 57 -8 70 16 16 48 1 51 -25z"/>
<path d="M2080 1900 c0 -5 5 -10 10 -10 6 0 10 5 10 10 0 6 -4 10 -10 10 -5 0
-10 -4 -10 -10z"/>
<path d="M1418 1835 c3 -49 0 -70 -10 -76 -8 -6 4 -9 33 -9 64 0 99 28 99 80
0 47 -17 62 -78 68 l-47 4 3 -67z m94 24 c24 -32 15 -76 -18 -91 -41 -19 -54
-5 -54 62 0 60 0 61 27 58 14 -2 35 -15 45 -29z"/>
<path d="M1620 1840 c-25 -25 -26 -52 -2 -73 24 -22 45 -21 65 1 23 25 22 69
-2 82 -28 14 -38 13 -61 -10z m48 -2 c17 -17 15 -67 -3 -74 -21 -8 -45 14 -45
40 0 21 17 46 30 46 3 0 11 -5 18 -12z"/>
<path d="M1938 1849 c-21 -12 -24 -69 -6 -87 29 -29 78 0 78 47 0 45 -33 63
-72 40z m46 -15 c20 -19 20 -35 2 -59 -8 -11 -20 -16 -29 -12 -22 8 -32 53
-17 72 16 19 25 19 44 -1z"/>
<path d="M2087 1820 c4 -25 1 -46 -7 -55 -11 -13 -8 -15 16 -14 16 0 23 3 17
6 -8 3 -13 24 -13 54 0 27 -4 49 -9 49 -5 0 -7 -18 -4 -40z"/>
</g>
</svg>
